<?xml version="1.0" standalone="no"?><!DOCTYPE svg PUBLIC "-//W3C//DTD SVG 1.1//EN" "http://www.w3.org/Graphics/SVG/1.1/DTD/svg11.dtd"><svg t="1692110831238" class="icon" viewBox="0 0 1024 1024" version="1.1" xmlns="http://www.w3.org/2000/svg" p-id="1597" xmlns:xlink="http://www.w3.org/1999/xlink" width="200" height="200"><path d="M776.36332359 509.87564488c0 16.01123772-1.10694989 29.49230458-3.28131589 40.44319983H559.12443297v96.0674263h213.95757473c2.17436522 10.19975175 3.28131512 21.82272368 3.28131589 34.94798492 0 16.05077151-1.10694989 29.49230458-3.28131589 40.40366605H559.12443297v171.37954347a371.42117892 371.42117892 0 0 1-56.92884531 4.46733336 366.59804072 366.59804072 0 0 1-56.84977695-4.46733336v-171.37954347H240.32290191c-3.00457784-8.77653002-4.50686714-21.1111132-4.50686715-37.12235093 0-6.60216479 0.39533941-13.08572745 1.1069499-19.68789225 0.79067805-6.56263102 1.89762795-12.7299226 3.39991725-18.501874h205.06244258v-96.10696009H240.32290191c-3.00457784-8.77653002-4.50686714-21.1111132-4.50686715-37.16188471 0-6.52309643 0.39533941-13.04619367 1.1069499-19.68789225a143.11279014 143.11279014 0 0 1 3.39991725-18.58094236h160.46818124L195.7286398 121.21767699A504.01794625 504.01794625 0 0 1 260.44566657 116.82941198c10.3578869 0 21.150647 0.39533941 32.29921272 1.06741534 11.14856572 0.71161048 21.150647 1.77902658 30.12484748 3.2417821l182.72577814 329.71289252 179.4839968-329.71289252c9.60674263-1.46275474 19.49022254-2.53017085 29.53183838-3.2417821a439.06371597 439.06371597 0 0 1 61.79151729 0 304.41118401 304.41118401 0 0 1 28.97836303 3.2417821L603.71869431 474.84859161h169.36331339c2.17436522 10.27881933 3.28131512 21.94132582 3.28131589 35.02705327z" p-id="1598"></path></svg>